<svg xmlns="http://www.w3.org/2000/svg" xmlns:xlink="http://www.w3.org/1999/xlink" version="1.1" width="256" height="256" viewBox="0 0 256 256" xml:space="preserve">
<desc>Created with Fabric.js 1.7.22</desc>
<defs>
</defs>
<g transform="translate(128 128) scale(0.72 0.72)" style="">
	<g style="stroke: none; stroke-width: 0; stroke-dasharray: none; stroke-linecap: butt; stroke-linejoin: miter; stroke-miterlimit: 10; fill: none; fill-rule: nonzero; opacity: 1;" transform="translate(-175.05 -175.05000000000004) scale(3.89 3.89)" >
	<path d="M 55.607 80.2 H 41.812 V 66.406 h 13.794 V 80.2 z M 44.779 77.233 h 7.86 v -7.86 h -7.86 V 77.233 z" style="stroke: none; stroke-width: 1; stroke-dasharray: none; stroke-linecap: butt; stroke-linejoin: miter; stroke-miterlimit: 10; fill: rgb(0,0,0); fill-rule: nonzero; opacity: 1;" transform=" matrix(1 0 0 1 0 0) " stroke-linecap="round" />
	<path d="M 30.116 20.392 H 16.321 V 6.597 h 13.794 V 20.392 z M 19.288 17.424 h 7.86 v -7.86 h -7.86 V 17.424 z" style="stroke: none; stroke-width: 1; stroke-dasharray: none; stroke-linecap: butt; stroke-linejoin: miter; stroke-miterlimit: 10; fill: rgb(0,0,0); fill-rule: nonzero; opacity: 1;" transform=" matrix(1 0 0 1 0 0) " stroke-linecap="round" />
	<path d="M 47.918 20.392 H 34.123 V 6.597 h 13.794 V 20.392 z M 37.09 17.424 h 7.86 v -7.86 h -7.86 V 17.424 z" style="stroke: none; stroke-width: 1; stroke-dasharray: none; stroke-linecap: butt; stroke-linejoin: miter; stroke-miterlimit: 10; fill: rgb(0,0,0); fill-rule: nonzero; opacity: 1;" transform=" matrix(1 0 0 1 0 0) " stroke-linecap="round" />
	<path d="M 30.116 38.194 H 16.321 V 24.399 h 13.794 V 38.194 z M 19.288 35.227 h 7.86 v -7.86 h -7.86 V 35.227 z" style="stroke: none; stroke-width: 1; stroke-dasharray: none; stroke-linecap: butt; stroke-linejoin: miter; stroke-miterlimit: 10; fill: rgb(0,0,0); fill-rule: nonzero; opacity: 1;" transform=" matrix(1 0 0 1 0 0) " stroke-linecap="round" />
	<path d="M 30.116 55.996 H 16.321 V 42.201 h 13.794 V 55.996 z M 19.288 53.029 h 7.86 v -7.86 h -7.86 V 53.029 z" style="stroke: none; stroke-width: 1; stroke-dasharray: none; stroke-linecap: butt; stroke-linejoin: miter; stroke-miterlimit: 10; fill: rgb(0,0,0); fill-rule: nonzero; opacity: 1;" transform=" matrix(1 0 0 1 0 0) " stroke-linecap="round" />
	<path d="M 55.301 44.596 H 41.507 V 30.802 h 13.794 V 44.596 z M 44.474 41.629 h 7.86 v -7.86 h -7.86 V 41.629 z" style="stroke: none; stroke-width: 1; stroke-dasharray: none; stroke-linecap: butt; stroke-linejoin: miter; stroke-miterlimit: 10; fill: rgb(0,0,0); fill-rule: nonzero; opacity: 1;" transform=" matrix(1 0 0 1 0 0) " stroke-linecap="round" />
	<path d="M 55.301 62.398 H 41.507 V 48.604 h 13.794 V 62.398 z M 44.474 59.431 h 7.86 v -7.86 h -7.86 V 59.431 z" style="stroke: none; stroke-width: 1; stroke-dasharray: none; stroke-linecap: butt; stroke-linejoin: miter; stroke-miterlimit: 10; fill: rgb(0,0,0); fill-rule: nonzero; opacity: 1;" transform=" matrix(1 0 0 1 0 0) " stroke-linecap="round" />
	<path d="M 81.595 87.102 V 24.399 H 55.877 V 0.069 H 8.404 v 87.033 H 2.473 v 2.967 h 13.848 h 13.794 h 4.008 h 47.472 h 5.932 v -2.967 H 81.595 z M 19.288 87.102 V 62.971 h 7.86 v 24.131 H 19.288 z M 30.116 87.102 V 60.004 H 16.321 v 27.098 h -4.95 V 3.036 H 52.91 v 21.363 H 34.123 v 62.703 H 30.116 z M 37.09 87.102 V 27.366 h 41.538 v 59.736 H 37.09 z" style="stroke: none; stroke-width: 1; stroke-dasharray: none; stroke-linecap: butt; stroke-linejoin: miter; stroke-miterlimit: 10; fill: rgb(0,0,0); fill-rule: nonzero; opacity: 1;" transform=" matrix(1 0 0 1 0 0) " stroke-linecap="round" />
	<path d="M 74.398 80.2 H 60.603 V 66.406 h 13.795 V 80.2 z M 63.57 77.233 h 7.861 v -7.86 H 63.57 V 77.233 z" style="stroke: none; stroke-width: 1; stroke-dasharray: none; stroke-linecap: butt; stroke-linejoin: miter; stroke-miterlimit: 10; fill: rgb(0,0,0); fill-rule: nonzero; opacity: 1;" transform=" matrix(1 0 0 1 0 0) " stroke-linecap="round" />
	<path d="M 74.093 44.596 H 60.298 V 30.802 h 13.795 V 44.596 z M 63.265 41.629 h 7.861 v -7.86 h -7.861 V 41.629 z" style="stroke: none; stroke-width: 1; stroke-dasharray: none; stroke-linecap: butt; stroke-linejoin: miter; stroke-miterlimit: 10; fill: rgb(0,0,0); fill-rule: nonzero; opacity: 1;" transform=" matrix(1 0 0 1 0 0) " stroke-linecap="round" />
	<path d="M 74.093 62.398 H 60.298 V 48.604 h 13.795 V 62.398 z M 63.265 59.431 h 7.861 v -7.86 h -7.861 V 59.431 z" style="stroke: none; stroke-width: 1; stroke-dasharray: none; stroke-linecap: butt; stroke-linejoin: miter; stroke-miterlimit: 10; fill: rgb(0,0,0); fill-rule: nonzero; opacity: 1;" transform=" matrix(1 0 0 1 0 0) " stroke-linecap="round" />
</g>
</g>
</svg>